<?xml version="1.0" encoding="UTF-8"?>
<svg version="1.1" xmlns="http://www.w3.org/2000/svg" width="360" height="287">
<path d="M0 0 C0.8263092 -0.00100708 1.65261841 -0.00201416 2.50396729 -0.00305176 C14.94739985 0.00721136 27.01122478 0.45350659 39.1875 3.25 C39.85249512 3.39985352 40.51749023 3.54970703 41.20263672 3.70410156 C45.58475696 4.72159165 49.88446352 5.9416124 54.1875 7.25 C55.37214844 7.59675781 56.55679688 7.94351562 57.77734375 8.30078125 C79.41823984 15.02169989 99.20094292 26.26932934 116.1875 41.25 C117.68216797 42.54550781 117.68216797 42.54550781 119.20703125 43.8671875 C125.93283865 49.79033959 131.77540724 56.07583053 137.1875 63.25 C137.79078125 64.04921875 138.3940625 64.8484375 139.015625 65.671875 C150.36471199 81.31521112 157.32361464 98.03280775 162.20703125 116.64453125 C163.0067991 120.05262768 163.0067991 120.05262768 164.1875 122.25 C164.27668777 123.63909304 164.30509541 125.03236907 164.30102539 126.42431641 C164.30094986 127.28505768 164.30087433 128.14579895 164.30079651 129.03262329 C164.29563522 129.96287323 164.29047394 130.89312317 164.28515625 131.8515625 C164.28303383 133.27896255 164.28303383 133.27896255 164.28086853 134.73519897 C164.27526012 137.78183097 164.26270619 140.82839013 164.25 143.875 C164.24498608 145.93749894 164.24042299 147.99999903 164.23632812 150.0625 C164.22528796 155.12502817 164.20801767 160.18750173 164.1875 165.25 C163.5275 165.25 162.8675 165.25 162.1875 165.25 C162.08566406 166.52617187 161.98382813 167.80234375 161.87890625 169.1171875 C161.27999268 174.44803908 159.84684098 179.30871455 158.125 184.375 C157.81264404 185.29442383 157.50028809 186.21384766 157.1784668 187.16113281 C148.29260582 212.46608777 130.70819819 235.33809567 109.1875 251.25 C108.19492187 251.98476562 107.20234375 252.71953125 106.1796875 253.4765625 C68.2097075 280.62463173 19.98526894 292.85392075 -26.33203125 285.25390625 C-28.16006468 284.925948 -29.98691076 284.59130157 -31.8125 284.25 C-33.18994385 283.99839111 -33.18994385 283.99839111 -34.59521484 283.74169922 C-67.72220683 277.48946477 -97.45532704 262.57980539 -121.8125 239.25 C-122.55628906 238.55777344 -123.30007812 237.86554688 -124.06640625 237.15234375 C-134.44238502 227.20944931 -142.10840085 215.86353137 -148.8125 203.25 C-149.6478125 201.70119141 -149.6478125 201.70119141 -150.5 200.12109375 C-154.91553703 191.65430149 -159.18518149 182.96838644 -158.8125 173.25 C-157.1625 172.92 -155.5125 172.59 -153.8125 172.25 C-151.50925521 176.67223 -149.44289048 181.11415678 -147.53662109 185.72338867 C-141.42012666 200.32172689 -133.39462627 212.58637535 -122.23242188 223.80664062 C-120.92170352 225.13899394 -119.653921 226.51322485 -118.390625 227.890625 C-111.42027337 235.32878547 -103.40363656 240.86108509 -94.8125 246.25 C-93.77609375 246.9001709 -93.77609375 246.9001709 -92.71875 247.56347656 C-73.67842703 259.27718272 -52.71531526 266.22056101 -30.8125 270.25 C-29.54535156 270.49492187 -28.27820313 270.73984375 -26.97265625 270.9921875 C17.22199735 277.99807178 65.42050283 267.7475639 102.1875 242.25 C106.01441135 239.41007795 109.62846735 236.41674311 113.1875 233.25 C114.03570312 232.52167969 114.88390625 231.79335937 115.7578125 231.04296875 C131.47656986 217.31909956 142.14527582 201.37174962 150.1875 182.25 C150.60902344 181.25871094 151.03054688 180.26742187 151.46484375 179.24609375 C161.37451921 152.95740752 158.4872766 122.48409922 147.1875 97.25 C132.79069987 65.91147378 106.12860196 43.32901994 75.1875 29.25 C74.02089844 28.71632813 72.85429687 28.18265625 71.65234375 27.6328125 C38.50874539 13.46511708 -0.55398234 9.78733204 -35.8125 17.25 C-36.89990479 17.4668042 -36.89990479 17.4668042 -38.00927734 17.68798828 C-54.32326674 20.9726109 -69.3837537 26.52924976 -84.06542969 34.33007812 C-85.59572725 35.13585806 -87.14424032 35.90684753 -88.6953125 36.671875 C-100.00288213 42.41004466 -110.9086255 50.52195907 -119.4296875 59.921875 C-120.8125 61.25 -120.8125 61.25 -122.8125 61.25 C-123.19921875 62.12398437 -123.19921875 62.12398437 -123.59375 63.015625 C-124.9132702 65.43474537 -126.39033928 67.03057303 -128.3125 69 C-137.20967347 78.86601269 -143.3292159 90.50849781 -148.33984375 102.7265625 C-151.96678571 111.40428571 -151.96678571 111.40428571 -154.8125 114.25 C-156.9375 113.875 -156.9375 113.875 -158.8125 113.25 C-157.96011128 89.38311582 -140.43724155 66.81276205 -124.8125 50.25 C-124.11253906 49.47398438 -123.41257813 48.69796875 -122.69140625 47.8984375 C-91.39958218 14.60003199 -44.59121805 0.03758587 0 0 Z " fill="#010101" transform="translate(195.8125,-0.25)"/>
<path d="M0 0 C2.5629841 2.09202297 5.0343564 4.24824306 7.49609375 6.45703125 C8.25019531 6.99457031 9.00429688 7.53210938 9.78125 8.0859375 C10.34714844 8.53839844 10.91304687 8.99085937 11.49609375 9.45703125 C11.49609375 10.11703125 11.49609375 10.77703125 11.49609375 11.45703125 C12.48609375 11.78703125 13.47609375 12.11703125 14.49609375 12.45703125 C16.62897279 14.61129055 18.37482876 17.0904164 20.18359375 19.51953125 C20.71597656 20.23326904 21.24835938 20.94700684 21.796875 21.68237305 C34.71654713 39.4800796 42.11525551 60.41806356 41.99609375 82.45703125 C41.98642578 84.34953613 41.98642578 84.34953613 41.9765625 86.28027344 C41.5423032 108.7989037 34.56409359 128.8365062 20.49609375 146.45703125 C19.61630859 147.65585937 19.61630859 147.65585937 18.71875 148.87890625 C14.82510142 154.14107078 10.62996899 158.40445009 5.49609375 162.45703125 C4.69558594 163.09382812 3.89507812 163.730625 3.0703125 164.38671875 C-18.86772574 181.09212861 -46.06280914 189.42247834 -73.6484375 185.99609375 C-94.37804212 182.9605586 -114.01204499 174.68609159 -129.50390625 160.45703125 C-129.99487793 160.01375488 -130.48584961 159.57047852 -130.99169922 159.11376953 C-143.42153267 147.78775891 -156.76598152 130.64076202 -158.50390625 113.45703125 C-156.85390625 113.12703125 -155.20390625 112.79703125 -153.50390625 112.45703125 C-150.63965619 115.82206703 -148.63646801 119.00227781 -146.81640625 123.01953125 C-136.13143702 144.84471902 -116.93076798 159.87589478 -94.375 168.00390625 C-67.70767629 177.01447625 -40.38734605 174.94981584 -15.25390625 162.64453125 C5.78070112 151.90591654 21.34090059 135.12074813 29.55859375 112.89453125 C30.23352025 110.75767009 30.88379113 108.61267197 31.49609375 106.45703125 C31.72683594 105.72097656 31.95757812 104.98492187 32.1953125 104.2265625 C38.36538955 81.60294664 32.82524377 57.37028056 21.49609375 37.45703125 C7.43203969 14.85734179 -14.57300464 1.51462096 -40.0546875 -4.796875 C-65.62413446 -10.32775198 -92.18964434 -4.74646344 -114.50390625 8.45703125 C-130.570193 18.92846991 -143.69932714 33.28762457 -150.2734375 51.48046875 C-151.50390625 53.45703125 -151.50390625 53.45703125 -154.015625 54.37109375 C-154.83675781 54.39945312 -155.65789062 54.4278125 -156.50390625 54.45703125 C-157.16390625 53.79703125 -157.82390625 53.13703125 -158.50390625 52.45703125 C-158.20821507 47.43767346 -156.2595284 43.30388107 -154.00390625 38.89453125 C-153.64570801 38.19344238 -153.28750977 37.49235352 -152.91845703 36.77001953 C-140.25930221 12.55561016 -119.95379498 -5.21658677 -94.12890625 -14.35546875 C-62.40249727 -24.14797872 -26.98645922 -20.38044015 0 0 Z " fill="#010101" transform="translate(305.50390625,59.54296875)"/>
<path d="M0 0 C4.29160791 -0.05871491 8.58311058 -0.09383483 12.875 -0.125 C14.07898438 -0.14175781 15.28296875 -0.15851563 16.5234375 -0.17578125 C35.42883392 -0.27852797 35.42883392 -0.27852797 43 6 C45.34917723 8.34917723 45.92818348 9.58705503 46.5 12.875 C45.83043909 17.05975568 44.29519774 19.4608433 41 22 C32.32084828 26.52097292 24.43021948 26.8860439 15 25 C15.33 29.95 15.66 34.9 16 40 C18.97 40.99 21.94 41.98 25 43 C24.67 43.66 24.34 44.32 24 45 C15.75 45 7.5 45 -1 45 C-1 44.01 -1 43.02 -1 42 C2.465 41.505 2.465 41.505 6 41 C6 28.79 6 16.58 6 4 C4.02 4 2.04 4 0 4 C0 2.68 0 1.36 0 0 Z M15 5 C14.90018786 7.6773138 14.86120125 10.32304175 14.875 13 C14.87113281 13.75023437 14.86726562 14.50046875 14.86328125 15.2734375 C14.52324459 18.93606117 14.52324459 18.93606117 16 22 C24.64375124 22.8701354 24.64375124 22.8701354 32.75 20.4375 C35.67442293 17.26937516 36 15.27325912 36 11 C35.66666667 8.66666667 35.66666667 8.66666667 34 7 C29.70014967 4.43838704 19.13470321 0.86529679 15 5 Z " fill="#000000" transform="translate(1,119)"/>
<path d="M0 0 C4.1945081 2.5203053 7.24349975 5.98699951 9.4375 10.375 C10.24730094 16.89323377 9.36036213 21.11010608 5.4375 26.375 C-0.40120298 31.39900024 -7.0815104 32.70647642 -14.625 32.3125 C-21.23158973 31.42888147 -25.68080161 28.54619045 -30 23.5625 C-32.21915311 19.03542766 -33.36426578 15.2286532 -31.96875 10.26171875 C-29.71649299 5.10676843 -26.48119856 2.03406442 -21.5625 -0.625 C-15.01470629 -2.8075979 -6.33923298 -2.926734 0 0 Z M-20.5625 5.375 C-23.39627257 9.7544667 -23.23213436 15.33257256 -22.5625 20.375 C-20.56592873 24.23044798 -19.16542362 25.97305092 -15.5625 28.375 C-12.49601979 28.92053487 -9.63147215 28.90357517 -6.5625 28.375 C-2.86947808 25.6248773 -0.56525043 22.88737694 0.4375 18.375 C0.58335659 13.2614395 0.32029475 8.8793699 -3 4.8125 C-5.99952615 1.9592922 -6.72074005 1.45593846 -10.8125 1.0625 C-15.26605765 1.4336298 -17.1958821 2.47814274 -20.5625 5.375 Z " fill="#010101" transform="translate(221.5625,132.625)"/>
<path d="M0 0 C3.84594567 2.92481794 6.41347147 6.52888586 7.58203125 11.203125 C7.84058215 16.27838344 7.12405632 20.07724355 3.89453125 24.078125 C-1.00589145 29.08281201 -5.95645338 30.72727314 -12.8359375 31.19140625 C-20.46477151 31.22603031 -25.29725656 29.32150554 -30.8203125 23.99609375 C-33.7518222 20.70620878 -34.28776443 18.18895772 -34.85546875 13.890625 C-34.11446273 7.64500281 -31.22448381 3.64096351 -26.35546875 -0.234375 C-18.51040893 -4.40727916 -7.69190532 -4.59894971 0 0 Z M-23.41796875 5.203125 C-26.01373895 10.16894625 -25.61750944 14.87401801 -24.41796875 20.203125 C-23.14870973 23.04384758 -22.16760822 24.62007208 -19.73046875 26.515625 C-14.90447502 27.95037989 -10.9997773 28.04675622 -6.60546875 25.703125 C-3.2143342 21.82754266 -1.30680697 18.10299748 -1.5078125 12.859375 C-2.43014736 7.58889011 -4.14694834 4.61994133 -8.41796875 1.203125 C-14.56439168 -1.87008647 -19.07686513 0.55915369 -23.41796875 5.203125 Z " fill="#010101" transform="translate(82.41796875,133.796875)"/>
<path d="M0 0 C5.81806896 3.51508333 8.97199632 7.27782148 11 13.8125 C10.79105456 19.87191784 9.12282048 23.62535163 4.9375 27.9375 C-1.57234664 32.09272126 -8.11996897 33.44215245 -15.74609375 32.3203125 C-22.20973483 30.86403288 -26.4724189 27.30296914 -30.3125 22 C-31.79472614 17.28382592 -31.48517735 13.18716916 -29.875 8.625 C-23.28892743 -1.25410886 -11.03553721 -4.27809372 0 0 Z M-20 6.8125 C-22.5957702 11.77832125 -22.19954069 16.48339301 -21 21.8125 C-19.73074098 24.65322258 -18.74963947 26.22944708 -16.3125 28.125 C-12.81581194 29.16455591 -9.56997282 29.49771551 -6 28.8125 C-2.47620234 26.84220454 -0.29931115 24.71043345 1 20.8125 C1.51236616 15.46205335 1.64741984 11.13046182 -0.75 6.25 C-4.00443268 2.72436459 -5.62341841 1.99094576 -10.375 1.375 C-15.06084597 1.94053313 -16.80268167 3.39211294 -20 6.8125 Z " fill="#010101" transform="translate(314,132.1875)"/>
<path d="M0 0 C0.99 0.66 1.98 1.32 3 2 C2.67 4.31 2.34 6.62 2 9 C0.68 9.33 -0.64 9.66 -2 10 C-3.65 8.02 -5.3 6.04 -7 4 C-10.11785113 4.64644661 -10.11785113 4.64644661 -11 7 C-11.06996014 8.70702735 -11.08440154 10.41668003 -11.0625 12.125 C-11.041875 13.73375 -11.02125 15.3425 -11 17 C-7.7 17.33 -4.4 17.66 -1 18 C-1.33 19.32 -1.66 20.64 -2 22 C-9.75 22.125 -9.75 22.125 -12 21 C-12 29.25 -12 37.5 -12 46 C-8.535 46.495 -8.535 46.495 -5 47 C-4.67 47.99 -4.34 48.98 -4 50 C-11.59 50 -19.18 50 -27 50 C-27 49.01 -27 48.02 -27 47 C-24.03 46.505 -24.03 46.505 -21 46 C-21.33 38.08 -21.66 30.16 -22 22 C-23.32 21.67 -24.64 21.34 -26 21 C-26 20.01 -26 19.02 -26 18 C-24.35 17.67 -22.7 17.34 -21 17 C-20.9175 15.80375 -20.835 14.6075 -20.75 13.375 C-20.1818324 9.03696359 -18.94682178 6.33456149 -16 3 C-10.88532255 -0.0086338 -5.83898093 -0.8713208 0 0 Z " fill="#000000" transform="translate(189,114)"/>
<path d="M0 0 C0.99 0.33 1.98 0.66 3 1 C3.33 3.64 3.66 6.28 4 9 C6.64 9.33 9.28 9.66 12 10 C12 10.99 12 11.98 12 13 C10 14 10 14 4 14 C3.67 21.92 3.34 29.84 3 38 C6.75274424 36.74908525 10.35874308 35.49934109 14 34 C13.49714589 37.72112045 12.95599234 39.6378752 10 42 C5.96003751 43.12725545 2.11793366 43.28542987 -1.9375 42.25 C-4 41 -4 41 -6 38 C-6.22705078 35.36450195 -6.22705078 35.36450195 -6.1953125 32.23828125 C-6.18564453 30.56088867 -6.18564453 30.56088867 -6.17578125 28.84960938 C-6.15902344 27.68236328 -6.14226562 26.51511719 -6.125 25.3125 C-6.11597656 24.13365234 -6.10695312 22.95480469 -6.09765625 21.74023438 C-6.07406423 18.82661974 -6.0411454 15.91341108 -6 13 C-7.65 13 -9.3 13 -11 13 C-10.45677238 9.205764 -8.9784232 7.7689044 -6.0625 5.375 C-5.35222656 4.78460938 -4.64195312 4.19421875 -3.91015625 3.5859375 C-3.27980469 3.06257813 -2.64945313 2.53921875 -2 2 C-1.34 1.34 -0.68 0.68 0 0 Z " fill="#000000" transform="translate(141,122)"/>
<path d="M0 0 C0 15.18 0 30.36 0 46 C2.64 46.33 5.28 46.66 8 47 C8 47.99 8 48.98 8 50 C0.41 50 -7.18 50 -15 50 C-15 49.01 -15 48.02 -15 47 C-11.535 46.505 -11.535 46.505 -8 46 C-8 32.8 -8 19.6 -8 6 C-9.65 6 -11.3 6 -13 6 C-13.33 5.01 -13.66 4.02 -14 3 C-12.23050388 2.49528803 -10.45934777 1.99639315 -8.6875 1.5 C-7.70136719 1.2215625 -6.71523437 0.943125 -5.69921875 0.65625 C-3 0 -3 0 0 0 Z " fill="#000000" transform="translate(248,114)"/>
<path d="M0 0 C0.33 1.32 0.66 2.64 1 4 C1.639375 3.34 2.27875 2.68 2.9375 2 C6.8831709 -0.57676467 10.37953662 -0.9604334 15 0 C16.79296875 1.328125 16.79296875 1.328125 18 3 C17.6875 6.1875 17.6875 6.1875 17 9 C14.08517222 9.80967438 12.53886783 10.21845993 9.6875 9.0625 C9.130625 8.711875 8.57375 8.36125 8 8 C8 7.01 8 6.02 8 5 C3.93975679 7.03802135 3.93975679 7.03802135 2 11 C1.85507877 12.40664926 1.75371069 13.8181133 1.68359375 15.23046875 C1.64169922 16.03291016 1.59980469 16.83535156 1.55664062 17.66210938 C1.51732422 18.49548828 1.47800781 19.32886719 1.4375 20.1875 C1.39431641 21.03248047 1.35113281 21.87746094 1.30664062 22.74804688 C1.20068482 24.83184433 1.0998498 26.91590103 1 29 C3.64 29.33 6.28 29.66 9 30 C9 30.99 9 31.98 9 33 C1.74 33 -5.52 33 -13 33 C-13 32.01 -13 31.02 -13 30 C-11.35 29.67 -9.7 29.34 -8 29 C-8 22.07 -8 15.14 -8 8 C-10.475 7.01 -10.475 7.01 -13 6 C-13 5.34 -13 4.68 -13 4 C-11.58774074 3.32404685 -10.16997095 2.65959941 -8.75 2 C-7.56664063 1.443125 -7.56664063 1.443125 -6.359375 0.875 C-4 0 -4 0 0 0 Z " fill="#010101" transform="translate(107,131)"/>
<path d="M0 0 C0 9.57 0 19.14 0 29 C2.31 29.66 4.62 30.32 7 31 C7 31.66 7 32.32 7 33 C-0.26 33 -7.52 33 -15 33 C-15 32.01 -15 31.02 -15 30 C-13.02 29.67 -11.04 29.34 -9 29 C-9 21.74 -9 14.48 -9 7 C-10.65 6.67 -12.3 6.34 -14 6 C-14 5.01 -14 4.02 -14 3 C-12.4188708 2.49307308 -10.83498617 1.99473557 -9.25 1.5 C-7.92742187 1.08234375 -7.92742187 1.08234375 -6.578125 0.65625 C-4 0 -4 0 0 0 Z " fill="#000000" transform="translate(274,131)"/>
<path d="M0 0 C0.99 0.66 1.98 1.32 3 2 C2.6875 3.875 2.6875 3.875 2 6 C-1.6441774 8.4294516 -3.71241272 8.16179575 -8 8 C-8 6.68 -8 5.36 -8 4 C-5.36 2.68 -2.72 1.36 0 0 Z " fill="#010101" transform="translate(272,120)"/>
<path d="M0 0 C2.31 0.33 4.62 0.66 7 1 C6.67 1.66 6.34 2.32 6 3 C3.67843403 3.40729228 1.3431213 3.74438677 -1 4 C-0.67 2.68 -0.34 1.36 0 0 Z " fill="#000000" transform="translate(263,128)"/>
<path d="M0 0 C1.32 0 2.64 0 4 0 C4 2.31 4 4.62 4 7 C3.67 7 3.34 7 3 7 C3 5.02 3 3.04 3 1 C2.34 1 1.68 1 1 1 C1 2.65 1 4.3 1 6 C0.67 6 0.34 6 0 6 C0 4.02 0 2.04 0 0 Z " fill="#000000" transform="translate(348,150)"/>
<path d="M0 0 C0.99 0.33 1.98 0.66 3 1 C3 2.32 3 3.64 3 5 C2.01 4.67 1.02 4.34 0 4 C0 2.68 0 1.36 0 0 Z " fill="#000000" transform="translate(256,160)"/>
<path d="M0 0 C0.33 0 0.66 0 1 0 C1 1.98 1 3.96 1 6 C0.34 5.67 -0.32 5.34 -1 5 C-0.67 3.35 -0.34 1.7 0 0 Z " fill="#000000" transform="translate(351,129)"/>
<path d="M0 0 C0.33 0.99 0.66 1.98 1 3 C1.66 3.33 2.32 3.66 3 4 C2.01 4 1.02 4 0 4 C0 2.68 0 1.36 0 0 Z " fill="#000000" transform="translate(145,155)"/>
<path d="M0 0 C0.33 0 0.66 0 1 0 C1 1.98 1 3.96 1 6 C0.67 6 0.34 6 0 6 C0 4.02 0 2.04 0 0 Z " fill="#000000" transform="translate(348,129)"/>
<path d="M0 0 C1.32 0.33 2.64 0.66 4 1 C3.67 1.66 3.34 2.32 3 3 C2.01 2.01 1.02 1.02 0 0 Z " fill="#000000" transform="translate(141,120)"/>
<path d="M0 0 C0.66 0.33 1.32 0.66 2 1 C1.01 1.66 0.02 2.32 -1 3 C-0.67 2.01 -0.34 1.02 0 0 Z " fill="#000000" transform="translate(191,136)"/>
<path d="M0 0 C1.32 0.33 2.64 0.66 4 1 C2.68 1.33 1.36 1.66 0 2 C0 1.34 0 0.68 0 0 Z " fill="#000000" transform="translate(126,135)"/>
<path d="M0 0 C0.33 0 0.66 0 1 0 C1 1.65 1 3.3 1 5 C0.67 5 0.34 5 0 5 C0 3.35 0 1.7 0 0 Z " fill="#000000" transform="translate(347,123)"/>
<path d="M0 0 C0.99 0.33 1.98 0.66 3 1 C1.68 1.33 0.36 1.66 -1 2 C-0.67 1.34 -0.34 0.68 0 0 Z " fill="#000000" transform="translate(266,120)"/>
<path d="M0 0 C1.65 0 3.3 0 5 0 C5 0.33 5 0.66 5 1 C3.35 1 1.7 1 0 1 C0 0.67 0 0.34 0 0 Z " fill="#000000" transform="translate(225,0)"/>
<path d="M0 0 C0.33 0.99 0.66 1.98 1 3 C0.34 2.67 -0.32 2.34 -1 2 C-0.67 1.34 -0.34 0.68 0 0 Z " fill="#000000" transform="translate(117,162)"/>
<path d="M0 0 C1 4 1 4 1 4 Z " fill="#000000" transform="translate(350,160)"/>
<path d="M0 0 C1 4 1 4 1 4 Z " fill="#000000" transform="translate(347,158)"/>
<path d="M0 0 C4 1 4 1 4 1 Z " fill="#000000" transform="translate(20,159)"/>
<path d="M0 0 C0.66 0.33 1.32 0.66 2 1 C1.01 1 0.02 1 -1 1 C-0.67 0.67 -0.34 0.34 0 0 Z " fill="#000000" transform="translate(188,135)"/>
<path d="M0 0 C0.99 0.33 1.98 0.66 3 1 C2.01 1.33 1.02 1.66 0 2 C0 1.34 0 0.68 0 0 Z " fill="#000000" transform="translate(108,131)"/>
<path d="M0 0 C4 1 4 1 4 1 Z " fill="#000000" transform="translate(206,129)"/>
<path d="M0 0 C1 4 1 4 1 4 Z " fill="#000000" transform="translate(145,123)"/>
<path d="M0 0 C0.99 0.495 0.99 0.495 2 1 C1.67 1.66 1.34 2.32 1 3 C0.67 2.01 0.34 1.02 0 0 Z " fill="#000000" transform="translate(330,77)"/>
<path d="M0 0 C0.99 0.33 1.98 0.66 3 1 C2.01 1 1.02 1 0 1 C0 0.67 0 0.34 0 0 Z " fill="#000000" transform="translate(302,56)"/>
<path d="M0 0 C4 1 4 1 4 1 Z " fill="#000000" transform="translate(165,0)"/>
<path d="" fill="#000000" transform="translate(0,0)"/>
<path d="" fill="#000000" transform="translate(0,0)"/>
<path d="M0 0 C3 1 3 1 3 1 Z " fill="#000000" transform="translate(111,159)"/>
<path d="M0 0 C0.66 0.66 1.32 1.32 2 2 C1.34 2 0.68 2 0 2 C0 1.34 0 0.68 0 0 Z " fill="#000000" transform="translate(178,157)"/>
<path d="M0 0 C0.66 0.66 1.32 1.32 2 2 C1.34 2 0.68 2 0 2 C0 1.34 0 0.68 0 0 Z " fill="#000000" transform="translate(109,157)"/>
<path d="M0 0 C0.33 0.66 0.66 1.32 1 2 C0.34 1.67 -0.32 1.34 -1 1 C-0.67 0.67 -0.34 0.34 0 0 Z " fill="#000000" transform="translate(149,156)"/>
<path d="M0 0 C3 1 3 1 3 1 Z " fill="#000000" transform="translate(210,135)"/>
<path d="M0 0 C0.33 0.66 0.66 1.32 1 2 C0.34 1.67 -0.32 1.34 -1 1 C-0.67 0.67 -0.34 0.34 0 0 Z " fill="#000000" transform="translate(166,128)"/>
<path d="M0 0 C3 1 3 1 3 1 Z " fill="#000000" transform="translate(180,119)"/>
<path d="" fill="#000000" transform="translate(0,0)"/>
<path d="" fill="#000000" transform="translate(0,0)"/>
<path d="" fill="#000000" transform="translate(0,0)"/>
<path d="" fill="#000000" transform="translate(0,0)"/>
<path d="M0 0 C2 1 2 1 2 1 Z " fill="#000000" transform="translate(235,159)"/>
<path d="M0 0 C2 1 2 1 2 1 Z " fill="#000000" transform="translate(17,158)"/>
<path d="" fill="#000000" transform="translate(0,0)"/>
<path d="M0 0 C2 1 2 1 2 1 Z " fill="#000000" transform="translate(70,135)"/>
<path d="M0 0 C2 1 2 1 2 1 Z " fill="#000000" transform="translate(66,135)"/>
<path d="M0 0 C2 1 2 1 2 1 Z " fill="#000000" transform="translate(257,134)"/>
<path d="M0 0 C2 1 2 1 2 1 Z " fill="#000000" transform="translate(260,132)"/>
<path d="M0 0 C2 1 2 1 2 1 Z " fill="#000000" transform="translate(111,130)"/>
<path d="" fill="#000000" transform="translate(0,0)"/>
<path d="" fill="#000000" transform="translate(0,0)"/>
<path d="M0 0 C2 1 2 1 2 1 Z " fill="#000000" transform="translate(262,123)"/>
<path d="" fill="#000000" transform="translate(0,0)"/>
<path d="" fill="#000000" transform="translate(0,0)"/>
<path d="M0 0 C2 1 2 1 2 1 Z " fill="#000000" transform="translate(236,121)"/>
<path d="" fill="#000000" transform="translate(0,0)"/>
<path d="" fill="#000000" transform="translate(0,0)"/>
<path d="" fill="#000000" transform="translate(0,0)"/>
<path d="" fill="#000000" transform="translate(0,0)"/>
<path d="" fill="#000000" transform="translate(0,0)"/>
<path d="" fill="#000000" transform="translate(0,0)"/>
<path d="" fill="#000000" transform="translate(0,0)"/>
<path d="" fill="#000000" transform="translate(0,0)"/>
<path d="" fill="#000000" transform="translate(0,0)"/>
<path d="" fill="#000000" transform="translate(0,0)"/>
<path d="" fill="#000000" transform="translate(0,0)"/>
<path d="" fill="#000000" transform="translate(0,0)"/>
<path d="" fill="#000000" transform="translate(0,0)"/>
<path d="" fill="#000000" transform="translate(0,0)"/>
<path d="" fill="#000000" transform="translate(0,0)"/>
<path d="" fill="#000000" transform="translate(0,0)"/>
<path d="" fill="#000000" transform="translate(0,0)"/>
<path d="" fill="#000000" transform="translate(0,0)"/>
<path d="" fill="#000000" transform="translate(0,0)"/>
<path d="" fill="#000000" transform="translate(0,0)"/>
<path d="" fill="#000000" transform="translate(0,0)"/>
<path d="" fill="#000000" transform="translate(0,0)"/>
<path d="" fill="#000000" transform="translate(0,0)"/>
<path d="" fill="#000000" transform="translate(0,0)"/>
<path d="" fill="#000000" transform="translate(0,0)"/>
<path d="" fill="#000000" transform="translate(0,0)"/>
<path d="" fill="#000000" transform="translate(0,0)"/>
<path d="" fill="#000000" transform="translate(0,0)"/>
<path d="" fill="#000000" transform="translate(0,0)"/>
<path d="" fill="#000000" transform="translate(0,0)"/>
<path d="" fill="#000000" transform="translate(0,0)"/>
<path d="" fill="#000000" transform="translate(0,0)"/>
<path d="" fill="#000000" transform="translate(0,0)"/>
<path d="" fill="#000000" transform="translate(0,0)"/>
<path d="" fill="#000000" transform="translate(0,0)"/>
<path d="" fill="#000000" transform="translate(0,0)"/>
<path d="" fill="#000000" transform="translate(0,0)"/>
<path d="" fill="#000000" transform="translate(0,0)"/>
<path d="" fill="#000000" transform="translate(0,0)"/>
<path d="" fill="#000000" transform="translate(0,0)"/>
<path d="" fill="#000000" transform="translate(0,0)"/>
<path d="" fill="#000000" transform="translate(0,0)"/>
<path d="" fill="#000000" transform="translate(0,0)"/>
<path d="" fill="#000000" transform="translate(0,0)"/>
<path d="" fill="#000000" transform="translate(0,0)"/>
<path d="" fill="#000000" transform="translate(0,0)"/>
<path d="" fill="#000000" transform="translate(0,0)"/>
<path d="" fill="#000000" transform="translate(0,0)"/>
<path d="" fill="#000000" transform="translate(0,0)"/>
<path d="" fill="#000000" transform="translate(0,0)"/>
<path d="" fill="#000000" transform="translate(0,0)"/>
<path d="" fill="#000000" transform="translate(0,0)"/>
<path d="" fill="#000000" transform="translate(0,0)"/>
<path d="" fill="#000000" transform="translate(0,0)"/>
<path d="" fill="#000000" transform="translate(0,0)"/>
<path d="" fill="#000000" transform="translate(0,0)"/>
<path d="" fill="#000000" transform="translate(0,0)"/>
<path d="" fill="#000000" transform="translate(0,0)"/>
<path d="" fill="#000000" transform="translate(0,0)"/>
<path d="" fill="#000000" transform="translate(0,0)"/>
<path d="" fill="#000000" transform="translate(0,0)"/>
<path d="" fill="#000000" transform="translate(0,0)"/>
<path d="" fill="#000000" transform="translate(0,0)"/>
<path d="" fill="#000000" transform="translate(0,0)"/>
<path d="" fill="#000000" transform="translate(0,0)"/>
<path d="" fill="#000000" transform="translate(0,0)"/>
<path d="" fill="#000000" transform="translate(0,0)"/>
<path d="" fill="#000000" transform="translate(0,0)"/>
<path d="" fill="#000000" transform="translate(0,0)"/>
<path d="" fill="#000000" transform="translate(0,0)"/>
<path d="" fill="#000000" transform="translate(0,0)"/>
<path d="" fill="#000000" transform="translate(0,0)"/>
<path d="" fill="#000000" transform="translate(0,0)"/>
<path d="" fill="#000000" transform="translate(0,0)"/>
<path d="" fill="#000000" transform="translate(0,0)"/>
<path d="" fill="#000000" transform="translate(0,0)"/>
<path d="" fill="#000000" transform="translate(0,0)"/>
<path d="" fill="#000000" transform="translate(0,0)"/>
<path d="" fill="#000000" transform="translate(0,0)"/>
<path d="" fill="#000000" transform="translate(0,0)"/>
<path d="" fill="#000000" transform="translate(0,0)"/>
<path d="" fill="#000000" transform="translate(0,0)"/>
<path d="" fill="#000000" transform="translate(0,0)"/>
<path d="" fill="#000000" transform="translate(0,0)"/>
<path d="" fill="#000000" transform="translate(0,0)"/>
<path d="" fill="#000000" transform="translate(0,0)"/>
<path d="" fill="#000000" transform="translate(0,0)"/>
</svg>
